<svg width="64" height="64" viewBox="0 0 64 64" fill="none" xmlns="http://www.w3.org/2000/svg">
  <defs>
    <linearGradient id="gradient" x1="0%" y1="0%" x2="100%" y2="100%">
      <stop offset="0%" style="stop-color:#667eea;stop-opacity:1" />
      <stop offset="100%" style="stop-color:#764ba2;stop-opacity:1" />
    </linearGradient>
  </defs>
  
  <!-- Background circle -->
  <circle cx="32" cy="32" r="28" fill="url(#gradient)" />
  
  <!-- Activity/pulse lines representing multi-agent system -->
  <g stroke="white" stroke-width="2.5" fill="none" stroke-linecap="round">
    <!-- Central pulse -->
    <path d="M12 32 L20 32 L24 24 L28 40 L32 20 L36 44 L40 28 L44 32 L52 32" opacity="0.9"/>
    
    <!-- Secondary pulses -->
    <path d="M16 26 L22 26 L25 22 L28 30 L31 24 L34 28 L37 26 L43 26" opacity="0.6"/>
    <path d="M16 38 L22 38 L25 34 L28 42 L31 36 L34 40 L37 38 L43 38" opacity="0.6"/>
  </g>
  
  <!-- Dots representing agents -->
  <g fill="white">
    <circle cx="18" cy="20" r="2.5" opacity="0.8"/>
    <circle cx="46" cy="20" r="2.5" opacity="0.8"/>
    <circle cx="18" cy="44" r="2.5" opacity="0.8"/>
    <circle cx="46" cy="44" r="2.5" opacity="0.8"/>
    <circle cx="32" cy="12" r="2.5" opacity="0.8"/>
    <circle cx="32" cy="52" r="2.5" opacity="0.8"/>
  </g>
</svg>